G04*
G04 #@! TF.GenerationSoftware,Altium Limited,Altium Designer,18.0.11 (651)*
G04*
G04 Layer_Color=8388736*
%FSLAX25Y25*%
%MOIN*%
G70*
G01*
G75*
%ADD10C,0.01000*%
%ADD11R,0.09068X0.06312*%
%ADD12R,0.04737X0.05918*%
%ADD13R,0.09068X0.03359*%
%ADD14O,0.09068X0.03359*%
%ADD15R,0.03359X0.09068*%
%ADD16O,0.03359X0.09068*%
%ADD17R,0.13202X0.07808*%
%ADD18R,0.05918X0.04737*%
%ADD19R,0.07887X0.07887*%
%ADD20R,0.05524X0.03359*%
%ADD21C,0.08674*%
%ADD22C,0.06706*%
%ADD23R,0.06706X0.06706*%
%ADD24C,0.08800*%
%ADD25C,0.07493*%
%ADD26R,0.07493X0.07493*%
%ADD27C,0.20485*%
%ADD28O,0.07887X0.10642*%
%ADD29C,0.18800*%
%ADD30C,0.24422*%
%ADD31C,0.05800*%
D10*
X-0Y0D02*
X0Y323500D01*
Y323500D02*
X355000Y323500D01*
X355000Y-0D01*
X0Y0D02*
X355000Y-0D01*
D11*
X254087Y285642D02*
D03*
X289913D02*
D03*
Y303358D02*
D03*
X254087D02*
D03*
X307060Y262342D02*
D03*
X342887D02*
D03*
Y280058D02*
D03*
X307060D02*
D03*
D12*
X110063Y128500D02*
D03*
X117937D02*
D03*
X178176Y239600D02*
D03*
X186050D02*
D03*
X265063Y76000D02*
D03*
X272937D02*
D03*
X265063Y65500D02*
D03*
X272937D02*
D03*
X265063Y55000D02*
D03*
X272937D02*
D03*
X265000Y44000D02*
D03*
X272874D02*
D03*
X93937Y98500D02*
D03*
X86063D02*
D03*
X93937Y88500D02*
D03*
X86063D02*
D03*
X93937Y78500D02*
D03*
X86063D02*
D03*
X175626Y136500D02*
D03*
X183500D02*
D03*
X93937Y68500D02*
D03*
X86063D02*
D03*
X318337Y252400D02*
D03*
X310463D02*
D03*
X279463Y276600D02*
D03*
X287337D02*
D03*
X109563Y192000D02*
D03*
X117437D02*
D03*
X271374Y199000D02*
D03*
X263500D02*
D03*
X330463Y252400D02*
D03*
X338337D02*
D03*
X266837Y276600D02*
D03*
X258963D02*
D03*
D13*
X132095Y138500D02*
D03*
D14*
Y143500D02*
D03*
Y148500D02*
D03*
Y153500D02*
D03*
Y158500D02*
D03*
Y163500D02*
D03*
Y168500D02*
D03*
Y173500D02*
D03*
Y178500D02*
D03*
Y183500D02*
D03*
X93906Y138500D02*
D03*
Y143500D02*
D03*
Y148500D02*
D03*
Y153500D02*
D03*
Y158500D02*
D03*
Y163500D02*
D03*
Y168500D02*
D03*
Y173500D02*
D03*
Y178500D02*
D03*
Y183500D02*
D03*
D15*
X167000Y69906D02*
D03*
D16*
X172000D02*
D03*
X177000D02*
D03*
X182000D02*
D03*
X187000D02*
D03*
X192000D02*
D03*
X197000D02*
D03*
X202000D02*
D03*
X207000D02*
D03*
X212000D02*
D03*
X167000Y108095D02*
D03*
X172000D02*
D03*
X177000D02*
D03*
X182000D02*
D03*
X187000D02*
D03*
X192000D02*
D03*
X197000D02*
D03*
X202000D02*
D03*
X207000D02*
D03*
X212000D02*
D03*
D17*
X269200Y264500D02*
D03*
Y247500D02*
D03*
D18*
X168500Y154563D02*
D03*
Y162437D02*
D03*
X147500Y108000D02*
D03*
Y100126D02*
D03*
X168500Y173126D02*
D03*
Y181000D02*
D03*
X222500Y92937D02*
D03*
Y85063D02*
D03*
X158500Y285563D02*
D03*
Y293437D02*
D03*
D19*
X249300Y243600D02*
D03*
Y260135D02*
D03*
D20*
X191724Y158500D02*
D03*
X181276Y162240D02*
D03*
Y154760D02*
D03*
D21*
X234408Y243332D02*
D03*
X195038Y253174D02*
D03*
X234408Y263017D02*
D03*
D22*
X176200Y314700D02*
D03*
Y304700D02*
D03*
Y294700D02*
D03*
Y284700D02*
D03*
D23*
Y274700D02*
D03*
D24*
X40315Y251315D02*
D03*
X50315D02*
D03*
X60315D02*
D03*
X70315D02*
D03*
X80315D02*
D03*
X90315D02*
D03*
X100315D02*
D03*
X110315D02*
D03*
X120315D02*
D03*
X130315D02*
D03*
X140315D02*
D03*
X150315D02*
D03*
X40315Y311315D02*
D03*
X50315D02*
D03*
X60315D02*
D03*
X70315D02*
D03*
X80315D02*
D03*
X90315D02*
D03*
X100315D02*
D03*
X110315D02*
D03*
X120315D02*
D03*
X130315D02*
D03*
X140315D02*
D03*
X150000Y311000D02*
D03*
D25*
X292500Y30000D02*
D03*
X302500D02*
D03*
X292500Y40000D02*
D03*
X302500D02*
D03*
X292500Y50000D02*
D03*
X302500D02*
D03*
X292500Y60000D02*
D03*
X302500D02*
D03*
X292500Y70000D02*
D03*
X302500D02*
D03*
X292500Y80000D02*
D03*
X302500D02*
D03*
X292500Y90000D02*
D03*
X302500D02*
D03*
X292500Y100000D02*
D03*
X302500D02*
D03*
X292500Y110000D02*
D03*
X302500D02*
D03*
X292500Y120000D02*
D03*
X302500D02*
D03*
X292500Y130000D02*
D03*
X302500D02*
D03*
X292500Y140000D02*
D03*
X302500D02*
D03*
X292500Y150000D02*
D03*
X302500D02*
D03*
X292500Y160000D02*
D03*
X302500D02*
D03*
X292500Y170000D02*
D03*
X302500D02*
D03*
X292500Y180000D02*
D03*
X302500D02*
D03*
X292500Y190000D02*
D03*
X302500D02*
D03*
X292500Y200000D02*
D03*
X302500D02*
D03*
X292500Y210000D02*
D03*
X52500Y30000D02*
D03*
X62500D02*
D03*
X52500Y40000D02*
D03*
X62500D02*
D03*
X52500Y50000D02*
D03*
X62500D02*
D03*
X52500Y60000D02*
D03*
X62500D02*
D03*
X52500Y70000D02*
D03*
X62500D02*
D03*
X52500Y80000D02*
D03*
X62500D02*
D03*
X52500Y90000D02*
D03*
X62500D02*
D03*
X52500Y100000D02*
D03*
X62500D02*
D03*
X52500Y110000D02*
D03*
X62500D02*
D03*
X52500Y120000D02*
D03*
X62500D02*
D03*
X52500Y130000D02*
D03*
X62500D02*
D03*
X52500Y140000D02*
D03*
X62500D02*
D03*
X52500Y150000D02*
D03*
X62500D02*
D03*
X52500Y160000D02*
D03*
X62500D02*
D03*
X52500Y170000D02*
D03*
X62500D02*
D03*
X52500Y180000D02*
D03*
X62500D02*
D03*
X52500Y190000D02*
D03*
X62500D02*
D03*
X52500Y200000D02*
D03*
X62500D02*
D03*
X52500Y210000D02*
D03*
X302500Y20000D02*
D03*
X292500D02*
D03*
X52500D02*
D03*
X62500D02*
D03*
D26*
X302500Y210000D02*
D03*
X62500D02*
D03*
D27*
X316295Y219882D02*
D03*
X40705D02*
D03*
D28*
X83500Y24213D02*
D03*
X93500D02*
D03*
X103500D02*
D03*
X113500D02*
D03*
X123500D02*
D03*
X133500D02*
D03*
X143500D02*
D03*
X153500D02*
D03*
X163500D02*
D03*
X173500D02*
D03*
X183500D02*
D03*
X193500D02*
D03*
X203500D02*
D03*
X213500D02*
D03*
X223500D02*
D03*
X233500D02*
D03*
X243500D02*
D03*
X253500D02*
D03*
X263500D02*
D03*
X273500D02*
D03*
D29*
X227700Y283760D02*
D03*
Y308760D02*
D03*
X207700Y296260D02*
D03*
D30*
X20000Y303150D02*
D03*
X335000D02*
D03*
Y20000D02*
D03*
X20000D02*
D03*
D31*
X223600Y10508D02*
D03*
X184747Y279653D02*
D03*
X306100Y271400D02*
D03*
X207000Y98200D02*
D03*
X258200Y115200D02*
D03*
X276500Y174000D02*
D03*
X235000Y65500D02*
D03*
X135000Y119000D02*
D03*
X143500D02*
D03*
X144500Y92000D02*
D03*
X134500D02*
D03*
X142000Y65000D02*
D03*
X130500D02*
D03*
X137500Y108500D02*
D03*
X123000Y116500D02*
D03*
X157500Y70000D02*
D03*
X159000Y178000D02*
D03*
X85500Y106000D02*
D03*
X269000Y86000D02*
D03*
X232000Y91000D02*
D03*
X100500Y204000D02*
D03*
Y192000D02*
D03*
X43000Y146500D02*
D03*
X75500Y154000D02*
D03*
X226000Y144000D02*
D03*
X232500Y99500D02*
D03*
X270500Y108000D02*
D03*
X110000Y79000D02*
D03*
X109500Y88500D02*
D03*
X110000Y68500D02*
D03*
X109500Y98500D02*
D03*
X204500Y118500D02*
D03*
X212500Y119500D02*
D03*
X214500Y98000D02*
D03*
X163500Y132500D02*
D03*
X314000Y200500D02*
D03*
X181500Y148000D02*
D03*
X144500Y173500D02*
D03*
X120500Y153500D02*
D03*
Y145000D02*
D03*
X98500Y122500D02*
D03*
X101500Y129000D02*
D03*
M02*
