M48
;Layer_Color=9474304
;FILE_FORMAT=2:5
INCH,LZ
;TYPE=PLATED
T1F00S00C0.02800
T2F00S00C0.04331
T3F00S00C0.04724
T4F00S00C0.11800
T5F00S00C0.11811
T6F00S00C0.13780
%
T01
X011Y00685
X01305Y0065
X0142
X01575Y007
X0235Y00655
X02236Y0010508
X0232Y0091
X02325Y00995
X02582Y01152
X02705Y0108
X0269Y0086
X02765Y0174
X0314Y02005
X0226Y0144
X02125Y01195
X02045Y01185
X0207Y00982
X02145Y0098
X01445Y0092
X01345
X01375Y01085
X0135Y0119
X01435
X0123Y01165
X00985Y01225
X01015Y0129
X01205Y0145
Y01535
X01445Y01735
X0159Y0178
X01635Y01325
X01815Y0148
X00755Y0154
X00855Y0106
X01095Y00985
Y00885
X011Y0079
X01005Y0192
Y0204
X0043Y01465
X0184747Y0279653
X03061Y02714
T02
X00525Y002
Y003
Y004
Y005
Y006
Y007
X00625
Y006
Y005
Y004
Y003
Y002
X02925
Y003
X03025
Y004
X02925
Y005
X03025
Y006
X02925
Y007
X03025
Y002
Y008
X02925
Y009
X03025
Y01
X02925
Y011
X03025
Y012
X02925
Y013
X03025
Y014
X02925
Y015
X03025
Y016
X02925
Y017
X03025
Y018
X02925
Y019
X03025
Y02
X02925
Y021
X03025
X00625
Y02
Y019
Y018
Y017
Y016
Y015
Y014
Y013
Y012
Y011
Y01
Y009
Y008
X00525
Y009
Y01
Y011
Y012
Y013
Y014
Y015
Y016
Y017
Y018
Y019
Y02
Y021
X01762Y02747
Y02847
Y02947
Y03047
Y03147
T03
X00835Y0024213
X00935
X01035
X01135
X01235
X01335
X01435
X01535
X01635
X01735
X01835
X01935
X02035
X02135
X02235
X02335
X02435
X02535
X02635
X02735
X0060315Y0251315
X0050315
X0040315
Y0311315
X0050315
X0060315
X0070315
X0080315
X0090315
X0100315
X0110315
X0120315
X0130315
X0140315
X015Y0311
X0150315Y0251315
X0140315
X0130315
X0120315
X0110315
X0100315
X0090315
X0080315
X0070315
X0195038Y0253174
X0234408Y0243332
Y0263017
T04
X02077Y029626
X02277Y028376
Y030876
T05
X0316295Y0219882
X0040705
T06
X002Y002
X0335
X002Y030315
X0335
M30
